<svg width="178" height="38" viewBox="0 0 178 38" fill="none" xmlns="http://www.w3.org/2000/svg">
<path d="M176.905 24.6828V26.4952H172.255C171.134 26.4952 170.586 25.9705 170.586 24.8259V16.4559H167.963V14.6436H170.586V11.639L172.708 10.9951V14.6436H176.428V16.4559H172.708V24.7067L176.905 24.6828Z" fill="#FFF8F7"/>
<path d="M155.17 20.4145C155.17 16.5753 157.46 14.4053 160.846 14.4053C164.351 14.4053 166.64 16.5276 166.64 20.1999V20.963H157.221C157.293 23.2761 158.509 25.0407 160.965 25.0407C162.992 25.0407 164.184 23.9915 164.59 22.3461H166.688C166.211 24.5399 164.637 26.7338 160.989 26.7338C157.126 26.7338 155.17 23.9199 155.17 20.4145ZM157.245 19.4607H164.566C164.423 17.3145 162.968 16.0745 160.846 16.0745C158.89 16.0745 157.412 17.3145 157.245 19.4607Z" fill="#FFF8F7"/>
<path d="M151.753 14.6436H153.852L149.703 26.4951H146.054L141.833 14.6436H143.979L147.89 25.7559L151.753 14.6436Z" fill="#FFF8F7"/>
<path d="M128.041 20.5576C128.041 17.0522 130.545 14.4053 134.336 14.4053C138.104 14.4053 140.608 17.0522 140.608 20.5576C140.608 24.0868 138.104 26.7338 134.336 26.7338C130.545 26.7338 128.041 24.0868 128.041 20.5576ZM130.139 20.5576C130.139 22.9661 131.618 24.9215 134.336 24.9215C137.031 24.9215 138.509 22.9661 138.509 20.5576C138.509 18.173 137.031 16.2176 134.336 16.2176C131.618 16.2176 130.139 18.173 130.139 20.5576Z" fill="#FFF8F7"/>
<path d="M117.776 26.7576C112.768 26.7576 109.811 23.0137 109.811 18.0776C109.811 13.1652 112.768 9.42139 117.776 9.42139C122.116 9.42139 124.954 11.9968 125.454 16.1699H123.284C122.903 13.0937 120.971 11.3052 117.776 11.3052C113.984 11.3052 112.005 14.0952 112.005 18.0776C112.005 22.0837 113.984 24.8737 117.776 24.8737C120.971 24.8737 122.903 23.0614 123.284 19.9853H125.454C124.954 24.1822 122.116 26.7576 117.776 26.7576Z" fill="#FFF8F7"/>
<path d="M99.6144 24.6828V26.4952H94.9644C93.8437 26.4952 93.2952 25.9705 93.2952 24.8259V16.4559H90.6721V14.6436H93.2952V11.639L95.4175 10.9951V14.6436H99.1375V16.4559H95.4175V24.7067L99.6144 24.6828Z" fill="#FFF8F7"/>
<path d="M84.6662 26.7338C81.137 26.7338 79.0862 25.0645 79.0862 22.1314H81.2085C81.2085 24.0868 82.4962 25.0645 84.69 25.0645C86.3593 25.0645 87.2177 24.5399 87.2177 23.3238C87.2177 22.513 86.717 22.0361 85.477 21.7022L82.3054 20.7722C80.97 20.3907 79.5631 19.5322 79.5631 17.6484C79.5631 15.5737 81.28 14.4053 84.0939 14.4053C87.1462 14.4053 89.0539 15.8122 89.0539 18.3876H86.9316C86.9316 16.9568 85.93 16.0507 84.1177 16.0507C82.5916 16.0507 81.6616 16.7184 81.6616 17.6007C81.6616 18.3876 82.1862 18.8645 83.3547 19.1984L86.1208 19.9853C88.1239 20.5576 89.3401 21.5353 89.3401 23.3715C89.3401 25.5176 87.7185 26.7338 84.6662 26.7338Z" fill="#FFF8F7"/>
<path d="M64.3267 20.5576C64.3267 17.0522 66.8305 14.4053 70.6221 14.4053C74.3898 14.4053 76.8936 17.0522 76.8936 20.5576C76.8936 24.0868 74.3898 26.7338 70.6221 26.7338C66.8305 26.7338 64.3267 24.0868 64.3267 20.5576ZM66.4251 20.5576C66.4251 22.9661 67.9036 24.9215 70.6221 24.9215C73.3167 24.9215 74.7951 22.9661 74.7951 20.5576C74.7951 18.173 73.3167 16.2176 70.6221 16.2176C67.9036 16.2176 66.4251 18.173 66.4251 20.5576Z" fill="#FFF8F7"/>
<path d="M50.2966 26.4952V9.68359H55.1851C59.6682 9.68359 62.1959 10.9713 62.1959 15.2398C62.1959 19.5321 59.6682 20.8198 55.1851 20.8198H52.4666V26.4952H50.2966ZM52.4666 18.9598H55.2566C58.0466 18.9598 60.0497 18.3875 60.0497 15.2398C60.0497 12.1159 58.0466 11.5436 55.2566 11.5436H52.4666V18.9598Z" fill="#FFF8F7"/>
<path d="M37.7176 18.6463C37.7176 28.9444 29.3694 37.2926 19.0713 37.2926C8.77328 37.2926 0.425049 28.9444 0.425049 18.6463C0.425049 8.34823 8.77328 0 19.0713 0C29.3694 0 37.7176 8.34823 37.7176 18.6463Z" fill="#AB1C00"/>
<path d="M37.7611 19.0572C37.7611 26.9162 31.3901 33.2872 23.531 33.2872C15.672 33.2872 9.30103 26.9162 9.30103 19.0572C9.30103 11.1981 15.672 4.82715 23.531 4.82715C31.3901 4.82715 37.7611 11.1981 37.7611 19.0572Z" fill="#FFF8F6"/>
<path d="M30.7073 18.2698C30.7073 23.782 26.2388 28.2505 20.7266 28.2505C15.2144 28.2505 10.7458 23.782 10.7458 18.2698C10.7458 12.7576 15.2144 8.28906 20.7266 8.28906C26.2388 8.28906 30.7073 12.7576 30.7073 18.2698Z" fill="#AB1C00"/>
<path d="M21.2614 17.8247C21.2614 20.7557 18.8853 23.1318 15.9543 23.1318C13.0233 23.1318 10.6472 20.7557 10.6472 17.8247C10.6472 14.8936 13.0233 12.5176 15.9543 12.5176C18.8853 12.5176 21.2614 14.8936 21.2614 17.8247Z" fill="#FFF8F6"/>
<path d="M20.7268 18.2696C20.7268 19.9195 19.3893 21.2571 17.7394 21.2571C16.0895 21.2571 14.752 19.9195 14.752 18.2696C14.752 16.6197 16.0895 15.2822 17.7394 15.2822C19.3893 15.2822 20.7268 16.6197 20.7268 18.2696Z" fill="#AB1C00"/>
<path d="M20.5094 18.2697C20.5094 19.064 19.8655 19.7079 19.0712 19.7079C18.2769 19.7079 17.6331 19.064 17.6331 18.2697C17.6331 17.4754 18.2769 16.8315 19.0712 16.8315C19.8655 16.8315 20.5094 17.4754 20.5094 18.2697Z" fill="#FFF8F6"/>
</svg>
